<svg aria-hidden="true" style="position: absolute; width: 0; height: 0; overflow: hidden;" version="1.1" xmlns="http://www.w3.org/2000/svg" xmlns:xlink="http://www.w3.org/1999/xlink">
<defs>
<symbol id="icon-facebook" viewBox="0 0 33 32">
<path d="M32.87 15.826c0-8.74-7.359-15.826-16.435-15.826s-16.435 7.086-16.435 15.826c0 7.899 6.009 14.446 13.867 15.635v-11.058h-4.174v-4.576h4.174v-3.487c0-3.966 2.454-6.158 6.208-6.158 1.798 0 3.679 0.309 3.679 0.309v3.895h-2.073c-2.040 0-2.679 1.219-2.679 2.473v2.967h4.558l-0.728 4.576h-3.829v11.060c7.858-1.188 13.867-7.735 13.867-15.636z"></path>
</symbol>
<symbol id="icon-instagram" viewBox="0 0 33 32">
<path d="M23.282 2.637c1.815 0.005 3.553 0.702 4.836 1.937s2.006 2.91 2.012 4.657v13.188c-0.005 1.747-0.729 3.422-2.012 4.657s-3.022 1.932-4.836 1.937h-13.695c-1.815-0.005-3.553-0.702-4.837-1.937s-2.006-2.91-2.012-4.657v-13.188c0.005-1.747 0.729-3.422 2.012-4.657s3.022-1.932 4.837-1.937h13.695zM23.282 0h-13.695c-5.273 0-9.587 4.154-9.587 9.232v13.188c0 5.078 4.314 9.232 9.587 9.232h13.695c5.273 0 9.587-4.154 9.587-9.232v-13.188c0-5.078-4.314-9.232-9.587-9.232z"></path>
<path d="M25.337 9.232c-0.406 0-0.804-0.116-1.141-0.333s-0.601-0.526-0.757-0.888c-0.156-0.362-0.196-0.759-0.117-1.143s0.275-0.736 0.562-1.013 0.653-0.465 1.052-0.541c0.398-0.076 0.812-0.037 1.187 0.113s0.696 0.403 0.922 0.729c0.226 0.325 0.346 0.708 0.346 1.099 0.001 0.26-0.052 0.517-0.155 0.758s-0.254 0.459-0.445 0.642-0.418 0.329-0.667 0.429c-0.249 0.099-0.517 0.15-0.787 0.149zM16.435 10.551c1.084 0 2.143 0.309 3.044 0.889s1.603 1.404 2.018 2.368c0.415 0.964 0.523 2.025 0.312 3.048s-0.733 1.963-1.499 2.701-1.742 1.24-2.805 1.444c-1.063 0.204-2.164 0.099-3.165-0.3s-1.857-1.075-2.459-1.943c-0.602-0.868-0.923-1.888-0.923-2.931 0.002-1.399 0.579-2.74 1.606-3.729s2.42-1.545 3.872-1.547zM16.435 7.913c-1.625 0-3.214 0.464-4.565 1.334s-2.405 2.105-3.027 3.551c-0.622 1.446-0.785 3.037-0.468 4.572s1.1 2.945 2.249 4.052 2.613 1.86 4.207 2.166c1.594 0.305 3.246 0.149 4.748-0.45s2.785-1.613 3.688-2.914c0.903-1.301 1.385-2.831 1.385-4.396 0-2.099-0.866-4.111-2.407-5.595s-3.631-2.318-5.811-2.318z"></path>
</symbol>
<symbol id="icon-pinterest" viewBox="0 0 33 32">
<path d="M16.42 0c-8.838 0-16.004 7.163-16.004 15.996 0 6.549 3.944 12.176 9.581 14.654-0.043-1.114-0.007-2.457 0.279-3.671 0.307-1.3 2.058-8.719 2.058-8.719s-0.514-1.021-0.514-2.528c0-2.371 1.372-4.142 3.086-4.142 1.457 0 2.158 1.093 2.158 2.399 0 1.464-0.936 3.649-1.415 5.677-0.4 1.7 0.85 3.078 2.529 3.078 3.029 0 5.073-3.892 5.073-8.505 0-3.506-2.365-6.127-6.659-6.127-4.851 0-7.88 3.621-7.88 7.663 0 1.393 0.414 2.378 1.057 3.135 0.293 0.35 0.336 0.493 0.229 0.893-0.079 0.293-0.25 1-0.329 1.285-0.107 0.407-0.436 0.55-0.8 0.4-2.236-0.914-3.279-3.356-3.279-6.113 0-4.542 3.837-9.991 11.438-9.991 6.109 0 10.131 4.42 10.131 9.162 0 6.277-3.494 10.962-8.638 10.962-1.729 0-3.351-0.935-3.908-1.992 0 0-0.929 3.685-1.129 4.399-0.336 1.235-1 2.464-1.607 3.428 1.473 0.434 3.001 0.656 4.537 0.657 8.838 0 16.004-7.163 16.004-15.996s-7.159-16.004-15.996-16.004z"></path>
</symbol>
<symbol id="icon-twitter" viewBox="0 0 40 32">
<path d="M38.81 3.656c-1.447 0.629-2.978 1.043-4.544 1.229 1.646-0.964 2.884-2.495 3.482-4.307-1.556 0.91-3.256 1.549-5.027 1.888-0.746-0.781-1.642-1.403-2.636-1.827s-2.063-0.642-3.143-0.64c-4.373 0-7.912 3.487-7.912 7.787-0.003 0.598 0.065 1.194 0.204 1.776-3.136-0.147-6.206-0.947-9.015-2.349s-5.294-3.374-7.297-5.792c-0.703 1.185-1.074 2.536-1.076 3.913 0 2.7 1.409 5.087 3.536 6.485-1.26-0.030-2.495-0.363-3.598-0.972v0.096c0 3.777 2.732 6.919 6.348 7.634-0.68 0.181-1.381 0.273-2.084 0.273-0.499 0.001-0.998-0.048-1.487-0.145 1.005 3.094 3.931 5.344 7.397 5.408-2.816 2.17-6.274 3.343-9.829 3.335-0.631-0.001-1.262-0.039-1.888-0.113 3.617 2.31 7.822 3.531 12.113 3.52 14.574 0 22.535-11.869 22.535-22.162 0-0.338-0.009-0.675-0.025-1.004 1.545-1.099 2.882-2.465 3.948-4.034z"></path>
</symbol>
</defs>
</svg>
